<?xml version="1.0" standalone="no"?>
<!DOCTYPE svg PUBLIC "-//W3C//DTD SVG 20010904//EN"
 "http://www.w3.org/TR/2001/REC-SVG-20010904/DTD/svg10.dtd">
<svg version="1.0" xmlns="http://www.w3.org/2000/svg"
 width="512.000000pt" height="512.000000pt" viewBox="0 0 512.000000 512.000000"
 preserveAspectRatio="xMidYMid meet">

<g transform="translate(0.000000,512.000000) scale(0.100000,-0.100000)"
fill="#2496ED" stroke="none">
<path d="M2420 5113 c-436 -23 -882 -168 -1240 -400 -163 -106 -276 -199 -425
-348 -302 -302 -500 -623 -628 -1021 -86 -265 -120 -490 -120 -784 0 -294 34
-519 120 -784 128 -398 326 -719 628 -1021 420 -421 908 -657 1515 -736 122
-16 458 -16 580 0 489 63 877 221 1270 515 122 91 375 344 466 466 337 450
498 898 530 1474 l7 119 -64 -53 c-120 -100 -297 -165 -483 -178 l-99 -7 -31
-100 c-226 -711 -999 -1248 -1991 -1381 -175 -24 -544 -23 -700 0 -373 57
-619 167 -816 367 -172 176 -299 432 -358 725 -34 167 -52 447 -35 532 l6 31
1687 3 c1603 3 1689 4 1741 22 30 10 65 27 76 37 l21 20 -28 82 c-92 268 -53
531 108 729 52 64 62 66 138 23 110 -64 202 -218 253 -425 17 -69 21 -75 43
-73 13 1 80 3 149 3 121 1 179 -9 336 -55 l22 -7 -20 109 c-125 699 -508 1290
-1094 1686 -456 307 -1011 460 -1564 430z m640 -1213 l0 -210 -230 0 -230 0 0
203 c0 112 3 207 7 210 3 4 107 7 230 7 l223 0 0 -210z m-1140 -530 l0 -210
-230 0 -230 0 0 203 c0 112 3 207 7 210 3 4 107 7 230 7 l223 0 0 -210z m570
0 l0 -210 -230 0 -230 0 0 203 c0 112 3 207 7 210 3 4 107 7 230 7 l223 0 0
-210z m570 0 l0 -210 -230 0 -230 0 0 203 c0 112 3 207 7 210 3 4 107 7 230 7
l223 0 0 -210z m-1710 -530 l0 -210 -230 0 -230 0 0 203 c0 112 3 207 7 210 3
4 107 7 230 7 l223 0 0 -210z m570 0 l0 -210 -230 0 -230 0 0 203 c0 112 3
207 7 210 3 4 107 7 230 7 l223 0 0 -210z m570 0 l0 -210 -230 0 -230 0 0 203
c0 112 3 207 7 210 3 4 107 7 230 7 l223 0 0 -210z m570 0 l0 -210 -227 2
-228 3 -3 195 c-1 107 0 200 2 207 4 10 57 13 231 13 l225 0 0 -210z m570 0
l0 -210 -227 2 -228 3 -3 195 c-1 107 0 200 2 207 4 10 57 13 231 13 l225 0 0
-210z"/>
</g>
</svg>
